<svg id="Layer_1" data-name="Layer 1" xmlns="http://www.w3.org/2000/svg" viewBox="0 0 550 550"><defs><style>.cls-1{fill:#10262e;}.cls-2{fill:#f4ebdb;}</style></defs><circle class="cls-1" cx="275" cy="249" r="199.19" transform="translate(-95.52 267.39) rotate(-45)"/><path class="cls-2" d="M275,393.1c-79.46,0-144.1-64.64-144.1-144.1S195.54,104.9,275,104.9,419.1,169.54,419.1,249,354.46,393.1,275,393.1Zm0-285.19c-77.8,0-141.09,63.29-141.09,141.09S197.2,390.09,275,390.09,416.09,326.8,416.09,249,352.8,107.91,275,107.91Z"/><path class="cls-2" d="M275,397.7c-82,0-148.7-66.7-148.7-148.7S193,100.3,275,100.3,423.7,167,423.7,249,357,397.7,275,397.7Zm0-296.65c-81.58,0-147.95,66.37-147.95,148s66.37,148,148,148S423,330.58,423,249,356.58,101.05,275,101.05Z"/><path class="cls-2" d="M275,402.29c-84.52,0-153.29-68.77-153.29-153.29S190.48,95.71,275,95.71,428.29,164.48,428.29,249,359.52,402.29,275,402.29Zm0-305.83c-84.11,0-152.54,68.43-152.54,152.54S190.89,401.54,275,401.54,427.54,333.11,427.54,249,359.11,96.46,275,96.46Z"/><path class="cls-2" d="M275,407c-87.13,0-158-70.89-158-158S187.87,91,275,91s158,70.89,158,158S362.13,407,275,407Zm0-315.29c-86.72,0-157.27,70.55-157.27,157.27S188.28,406.27,275,406.27,432.27,335.72,432.27,249,361.72,91.73,275,91.73Z"/><path class="cls-2" d="M275,411.89c-89.82,0-162.89-73.07-162.89-162.89S185.18,86.11,275,86.11,437.89,159.18,437.89,249,364.82,411.89,275,411.89Zm0-325c-89.4,0-162.14,72.73-162.14,162.14S185.6,411.14,275,411.14,437.14,338.41,437.14,249,364.41,86.86,275,86.86Z"/><path class="cls-2" d="M275,416.92c-92.59,0-167.92-75.33-167.92-167.92S182.41,81.08,275,81.08,442.92,156.41,442.92,249,367.59,416.92,275,416.92Zm0-335.09c-92.18,0-167.17,75-167.17,167.17s75,167.17,167.17,167.17,167.17-75,167.17-167.17S367.18,81.83,275,81.83Z"/><path class="cls-2" d="M275,422.1c-95.45,0-173.1-77.65-173.1-173.1S179.55,75.9,275,75.9,448.1,153.55,448.1,249,370.45,422.1,275,422.1Zm0-345.45C180,76.65,102.65,154,102.65,249S180,421.35,275,421.35,447.35,344,447.35,249,370,76.65,275,76.65Z"/><path class="cls-2" d="M275,427.45C176.61,427.45,96.56,347.4,96.56,249S176.61,70.55,275,70.55,453.44,150.6,453.44,249,373.39,427.45,275,427.45Zm0-356.14C177,71.31,97.31,151,97.31,249S177,426.69,275,426.69,452.69,347,452.69,249,373,71.31,275,71.31Z"/><path class="cls-2" d="M275,433C173.57,433,91.05,350.43,91.05,249S173.57,65.05,275,65.05s184,82.52,184,184S376.43,433,275,433ZM275,65.8C174,65.8,91.8,148,91.8,249S174,432.2,275,432.2,458.2,350,458.2,249,376,65.8,275,65.8Z"/><path class="cls-2" d="M275,438.63C170.44,438.63,85.37,353.56,85.37,249S170.44,59.37,275,59.37,464.63,144.44,464.63,249,379.56,438.63,275,438.63Zm0-378.51C170.85,60.12,86.12,144.85,86.12,249S170.85,437.88,275,437.88,463.88,353.15,463.88,249,379.15,60.12,275,60.12Z"/><path class="cls-2" d="M275,441.26C169,441.26,82.73,355,82.73,249S169,56.74,275,56.74,467.27,143,467.27,249,381,441.26,275,441.26Zm0-381.51C170.64,59.75,85.74,144.65,85.74,249S170.64,438.25,275,438.25,464.26,353.36,464.26,249,379.36,59.75,275,59.75Z"/><path class="cls-1" d="M483.79,211.77h0l-66.95-80.44A20.13,20.13,0,0,0,395,125l-95.91,31.21a35.17,35.17,0,0,0-22,21l-14,36.51-36.49-40.2a53.53,53.53,0,0,0-23.06-14.9l-61.63-20a26.74,26.74,0,0,0-30.05,9.87L64.69,214.12a22.51,22.51,0,0,0-1.84,23.33l36.22,72.06a31.48,31.48,0,0,0,24.22,17.14l70.54,9a28.52,28.52,0,0,0,9.62-.42,28.12,28.12,0,0,0,15.34-9.07l35.58-40.81L301.93,364a30.28,30.28,0,0,0,17.48,13.43,30.23,30.23,0,0,0,14.89.51,30.18,30.18,0,0,0,7.07-2.49L420.76,336a43.21,43.21,0,0,0,16.86-15l48.2-73.7a29.91,29.91,0,0,0-2-35.49Z"/><path class="cls-2" d="M116,151.43,68.79,217.06a17.53,17.53,0,0,0-1.43,18.13l36.22,72.06a26.54,26.54,0,0,0,20.35,14.4l70.54,9a23.3,23.3,0,0,0,20.51-7.8l58.76-67.38a17.1,17.1,0,0,0-.23-22.73l-50.66-55.83A48.32,48.32,0,0,0,202,163.39l-61.63-20A21.78,21.78,0,0,0,116,151.43Z"/><path class="cls-1" d="M216.22,226l11,.68-18.47-11-7.37-.22-27.06-16.08L164,184.27l26.2,14.23s2.86,5.59,8.22,6.71l5.9,4s2.51,3.16,8.16,2.25l10.94,6.26s3,8.13,9.41,9.25,6.09,2.78,6.09,2.78,4.36.79,7-1.79,2.83-3.69,2.83-3.69l.55-4.28-2.69-5.58,4.44,2.09h0l20.33,22.66Z"/><path class="cls-1" d="M227.33,194l-15.23-8a13.77,13.77,0,0,1,3.44,6.72C209,182.67,197,180.77,197,180.77l-5.71-8.29L186.94,171c-1.66-3.9-7.19-6.28-7.36-6.35a17.58,17.58,0,0,1,6.9,10.36c1.5,6.88-3.3,8.74-3.3,8.74,3.32-3.62.72-11.41-5.82-17.41s-14.52-7.93-17.84-4.31-.72,11.41,5.81,17.41a27,27,0,0,0,5.49,3.93l-10-3.83L142,152a1,1,0,0,1,1.14-1.49l9.08,3.12c-1.48.54-1.9,2.12,2.59,3.78,5.83,2.15,5.64-1,5.64-1l46.8,16.05c3.27,1.12,6.87,2.92,9.18,5.49l20.61,23L224.76,190Z"/><path class="cls-1" d="M206.83,192.23c4.87,4.47,7.16,9.9,5.12,12.12s-7.65.41-12.51-4.06-7.16-9.89-5.12-12.12S202,187.77,206.83,192.23Z"/><path class="cls-2" d="M203.91,200.32a1.16,1.16,0,1,1-1.82-.13A1.31,1.31,0,0,1,203.91,200.32Z"/><path class="cls-2" d="M196.1,188.19c3.33,1.24,13.33,9.42,15.63,14.12l-.55-3.76L209,194.42l-3.75-3.57-4.73-2.8S197,187.58,196.1,188.19Z"/><path class="cls-1" d="M194.1,230.84c3,.37,6,.81,8.92,1.3,1.49.23,3,.49,4.44.75s3,.52,4.43.8c3,.53,5.89,1.13,8.83,1.71l8.81,1.83,8.8,1.88,8.78,1.95c5.84,1.33,11.68,2.68,17.5,4.16l-.6,2.67c-5.89-1.14-11.75-2.41-17.61-3.69l-8.77-2-8.76-2.05-8.74-2.1c-2.91-.73-5.83-1.43-8.72-2.21-1.46-.38-2.91-.76-4.35-1.17s-2.9-.79-4.34-1.21C199.83,232.65,197,231.79,194.1,230.84Z"/><path class="cls-1" d="M193.42,228.52c3,.38,6.05.83,9.06,1.33,1.5.24,3,.5,4.5.76s3,.54,4.5.81c3,.55,6,1.16,9,1.75l8.94,1.85,8.92,1.92,8.91,2c5.94,1.35,11.86,2.72,17.76,4.22l-.59,2.67c-6-1.16-11.93-2.44-17.87-3.74l-8.9-2L228.72,238l-8.88-2.13c-3-.74-5.91-1.46-8.85-2.25-1.47-.38-2.94-.76-4.41-1.17s-2.94-.81-4.4-1.23C199.25,230.35,196.33,229.48,193.42,228.52Z"/><path class="cls-1" d="M192.42,232.42c3,.38,6.05.83,9.05,1.33,1.51.24,3,.5,4.51.76s3,.54,4.49.82c3,.54,6,1.15,9,1.74l8.93,1.86,8.93,1.91,8.91,2c5.93,1.35,11.86,2.73,17.76,4.22l-.6,2.67c-6-1.15-11.92-2.44-17.87-3.74l-8.9-2-8.89-2.07-8.87-2.13c-3-.74-5.91-1.46-8.85-2.24-1.47-.39-3-.77-4.41-1.18s-2.94-.81-4.4-1.23C198.24,234.25,195.32,233.38,192.42,232.42Z"/><path class="cls-1" d="M270.63,259.5l-13.16,14.73L212.12,325a16.25,16.25,0,0,1-14,5.31l-62.39-7.13-14.08-2.62a6.18,6.18,0,0,1-3.62-10.05l29.48-35.32,32.2-38.57a8.25,8.25,0,0,1,8-2.78l79.91,16.61A5.51,5.51,0,0,1,270.63,259.5Z"/><path class="cls-2" d="M190.22,298.42a13.81,13.81,0,0,1-14.39-4.61c-5.56-6.43-1.84-9.08-.89-9,.6.07,1.68.16,3,4.58s10.28,8.08,10.28,8.08Z"/><path class="cls-2" d="M185.27,275.67c9.41-3.28,17.8-.93,21.31,5.43s-2,17.61-12.82,17.23Z"/><path class="cls-2" d="M204,285.18c.63,5.86-4.76,11.25-12,12s-13.69-3.33-14.32-9.19,4.76-11.25,12-12S203.38,279.32,204,285.18Z"/><path class="cls-2" d="M150.3,274l31.3-33.48a8,8,0,0,1,7.35-2.37L258.78,252l.7-3.3-52.09-10.3-18.8-4.2-5.27.4-4.14,1.65-10.92,14.11Z"/><polygon class="cls-2" points="231.04 249.76 260.22 255.41 262.65 255.89 261.12 257.79 247.86 274.19 258.59 256.03 259.48 258.4 231.04 249.76"/><path class="cls-2" d="M257.93,271.36l-.46,2.87L212.12,325a16.25,16.25,0,0,1-14,5.31l-62.39-7.13-14.08-2.62a6.18,6.18,0,0,1-3.62-10.05l29.48-35.32,1,.05-26.17,37.41a2.11,2.11,0,0,0,1.39,3.29l10.11,1.65c-.17-.07-1.91-.79-1.34-2.35S149.2,315.7,149,318a1.67,1.67,0,0,1-1.77,1.67L193,325.76c5.82.77,14.55-2.18,18.71-6.33Z"/><path class="cls-1" d="M126.74,186.19c1.26,5.79-1.53,11.31-6.23,12.33s-9.55-2.83-10.81-8.62,1.54-11.31,6.24-12.34S125.48,180.4,126.74,186.19Z"/><path class="cls-2" d="M121.59,179.3a10.37,10.37,0,0,0-6.22,2.22c1.64.83,1.68,4,1.2,5.53s-1.95,3.4-3.56,3.34c.72,2.71,2.22,5.81,4.54,7.22s-1.46,1.28-1.46,1.28-4.06-3.12-5.57-6.47a14,14,0,0,1-.32-9.62,7.55,7.55,0,0,1,4.06-4.65c1.68-.59,4.86-.79,6.09-.18S121.59,179.3,121.59,179.3Z"/><path class="cls-1" d="M275.27,247.29l-85.73-21.24a14.72,14.72,0,0,1-8.67-6l-47.74-70.4a5,5,0,0,1,5.15-7.76,95.72,95.72,0,0,1,10.13,2.75l14.34,4.65-.84,2.6-14.34-4.65a92,92,0,0,0-9.84-2.67,2.21,2.21,0,0,0-2.35,1,2.26,2.26,0,0,0,0,2.58l47.75,70.39a12,12,0,0,0,7.06,4.93l85.73,21.23Z"/><path class="cls-1" d="M203.74,331.36a17.18,17.18,0,0,1-5.73.29l-62.44-7.14h0l-14.08-2.61A7.56,7.56,0,0,1,117,309.61l29.48-35.32,32.2-38.56a9.57,9.57,0,0,1,9.31-3.25l79.91,16.61a6.88,6.88,0,0,1,3.73,11.32h0l-58.51,65.48A17.65,17.65,0,0,1,203.74,331.36ZM136,321.8l62.34,7.14a14.9,14.9,0,0,0,12.78-4.87l58.51-65.48a4.14,4.14,0,0,0-2.25-6.82l-79.91-16.61a6.85,6.85,0,0,0-6.65,2.32l-32.2,38.57-29.48,35.31a4.82,4.82,0,0,0,2.82,7.84Z"/><path class="cls-1" d="M202.82,332.28a25.32,25.32,0,0,1-8.61.38l-70.54-9a28.54,28.54,0,0,1-21.93-15.51L65.52,236.11a19.56,19.56,0,0,1,1.6-20.24l47.16-65.63,1.67,1.19-1.67-1.19a23.77,23.77,0,0,1,26.7-8.77l61.63,20a50.51,50.51,0,0,1,21.76,14.06L275,231.33a19.15,19.15,0,0,1,.26,25.45l-58.76,67.38A25.27,25.27,0,0,1,202.82,332.28ZM129.43,144.85a19.76,19.76,0,0,0-11.82,7.78L70.45,218.26a15.45,15.45,0,0,0-1.26,16l36.22,72a24.41,24.41,0,0,0,18.78,13.29l70.54,9a21.25,21.25,0,0,0,18.71-7.12l58.75-67.38a15,15,0,0,0-.2-20l-50.66-55.83a46.18,46.18,0,0,0-20-12.91l-61.62-20A19.75,19.75,0,0,0,129.43,144.85Z"/><path class="cls-1" d="M108.74,310.05a6.19,6.19,0,0,1-2,.09,6,6,0,0,1-4.67-3.36l-35.91-71c-2.53-5.29-3.09-14.36,3.6-22.59l45.1-62.58a7.57,7.57,0,0,1,6.35-3,9.26,9.26,0,0,1,7.4,3.92L174.88,219a11.8,11.8,0,0,1-.65,14.14L112.07,308A6,6,0,0,1,108.74,310.05Zm11.1-159.59a4.58,4.58,0,0,0-2.79,1.78L71.91,214.88l0,0c-5.91,7.26-5.46,15.14-3.29,19.69l35.91,71a3.27,3.27,0,0,0,5.47.7l62.15-74.89a9,9,0,0,0,.5-10.84l-46.29-67.47a6.47,6.47,0,0,0-5.18-2.74A6,6,0,0,0,119.84,150.46Z"/><path class="cls-1" d="M120.8,199.86c-5.44,1.18-11-3.16-12.43-9.67s1.85-12.78,7.28-14,11,3.15,12.43,9.67S126.23,198.68,120.8,199.86Zm-4.57-21c-4,.86-6.29,5.66-5.19,10.71s5.21,8.44,9.17,7.58,6.3-5.67,5.2-10.71S120.2,178,116.23,178.9Z"/><path class="cls-2" d="M117.86,191.73a1.54,1.54,0,0,1-.87,1.94c-.69.15-1.41-.48-1.61-1.4a1.55,1.55,0,0,1,.88-2C116.94,190.17,117.66,190.8,117.86,191.73Z"/><path class="cls-1" d="M120.66,173.77a10.17,10.17,0,0,1,1.45.14,14.43,14.43,0,0,1,1.44.36,10.35,10.35,0,0,1,1.39.56,13.71,13.71,0,0,1,5.72,5,16.41,16.41,0,0,1,2.41,5.75c.05.26.11.52.16.78s.07.52.1.78a14,14,0,0,1,.12,1.58,16,16,0,0,1-.57,4.75,15.83,15.83,0,0,1-.49,1.52,15,15,0,0,1-.66,1.47,10.83,10.83,0,0,1-.81,1.4,13.57,13.57,0,0,1-4.66,4.41,11.8,11.8,0,0,1-6.09,1.51,10.28,10.28,0,0,1-5.61-1.87,11.88,11.88,0,0,0,5.5.78,11.39,11.39,0,0,0,5.23-1.88,12.85,12.85,0,0,0,3.83-4,14.84,14.84,0,0,0,1.92-5.24,16.34,16.34,0,0,0,0-5.58l-.12-.69-.17-.68c-.1-.46-.28-.9-.41-1.34a16.86,16.86,0,0,0-1.16-2.56c-.22-.41-.49-.79-.74-1.19l-.41-.57c-.14-.19-.28-.37-.43-.55a14.55,14.55,0,0,0-4.3-3.56A14.25,14.25,0,0,0,120.66,173.77Z"/><path class="cls-1" d="M110.23,198.59a11.92,11.92,0,0,1-5.35-6.12c-.13-.32-.25-.66-.37-1s-.18-.68-.28-1a13.73,13.73,0,0,1-.38-2.11,7.59,7.59,0,0,1-.07-1.07c0-.36,0-.72,0-1.08a19.39,19.39,0,0,1,.25-2.15,13.62,13.62,0,0,1,4.07-7.54,11.45,11.45,0,0,1,3.65-2.25c.34-.1.67-.21,1-.3l.25-.06.26,0,.52-.07a7.74,7.74,0,0,1,2,0,12.48,12.48,0,0,0-3.52,1.41,13,13,0,0,0-2.89,2.45,14.36,14.36,0,0,0-3.2,6.81,14.8,14.8,0,0,0-.25,1.89c0,.31,0,.63,0,1s0,.63,0,.95a15,15,0,0,0,.21,1.89c.06.31.1.62.17.94s.14.61.23.92A16.15,16.15,0,0,0,110.23,198.59Z"/><path class="cls-1" d="M98,224.57c1.26,5.79-1.53,11.31-6.23,12.33s-9.55-2.83-10.81-8.62,1.54-11.31,6.24-12.34S96.77,218.78,98,224.57Z"/><path class="cls-2" d="M92.88,217.68a10.37,10.37,0,0,0-6.22,2.22c1.64.83,1.68,4,1.2,5.54s-2,3.39-3.56,3.33c.72,2.72,2.22,5.81,4.54,7.23s-1.46,1.27-1.46,1.27-4.06-3.12-5.57-6.47a14,14,0,0,1-.32-9.62,7.5,7.5,0,0,1,4.06-4.64c1.68-.6,4.86-.8,6.09-.19S92.88,217.68,92.88,217.68Z"/><path class="cls-1" d="M92.09,238.24c-5.44,1.18-11-3.16-12.43-9.67s1.85-12.78,7.28-14,11,3.15,12.43,9.67S97.52,237.06,92.09,238.24Zm-4.57-21c-4,.86-6.29,5.67-5.19,10.71s5.21,8.44,9.17,7.58,6.3-5.67,5.2-10.71S91.49,216.42,87.52,217.28Z"/><path class="cls-2" d="M89.15,230.11a1.56,1.56,0,0,1-.87,1.95c-.69.14-1.41-.49-1.61-1.41a1.55,1.55,0,0,1,.88-2C88.23,228.55,89,229.18,89.15,230.11Z"/><path class="cls-1" d="M96.13,214.18a12.25,12.25,0,0,1,4.65,3.37,15.36,15.36,0,0,1,3,5.17,17.26,17.26,0,0,1,.85,6,11.47,11.47,0,0,1-.15,1.54,13.89,13.89,0,0,1-.29,1.54,11.7,11.7,0,0,1-.45,1.5,13.11,13.11,0,0,1-.59,1.46,12.41,12.41,0,0,1-.75,1.39,11.73,11.73,0,0,1-.89,1.32l-.5.62c-.17.21-.37.39-.55.58l-.56.57a7.75,7.75,0,0,1-.62.52,12.48,12.48,0,0,1-5.75,2.65,11.45,11.45,0,0,1-6.1-.55,10.94,10.94,0,0,1-4.68-3.37,13.09,13.09,0,0,0,4.92,2.31,11.33,11.33,0,0,0,5.43-.08,11.59,11.59,0,0,0,4.79-2.55,13.15,13.15,0,0,0,3.25-4.36,15.3,15.3,0,0,0,1.39-5.27,17.1,17.1,0,0,0-.44-5.43A15.81,15.81,0,0,0,96.13,214.18Z"/><path class="cls-1" d="M78.28,233.2a9.73,9.73,0,0,1-1.71-2.94,12.72,12.72,0,0,1-.74-3.34,12.22,12.22,0,0,1,.23-3.42,9.18,9.18,0,0,1,1.3-3.15c-.1,1.13-.2,2.21-.23,3.28a30.56,30.56,0,0,0,.07,3.18,31.2,31.2,0,0,0,.4,3.17C77.79,231,78,232.09,78.28,233.2Z"/><path class="cls-1" d="M123.42,267.25c1.26,5.78-1.53,11.31-6.24,12.33s-9.54-2.84-10.8-8.63,1.53-11.31,6.24-12.33S122.16,261.46,123.42,267.25Z"/><path class="cls-2" d="M118.27,260.35a10.44,10.44,0,0,0-6.23,2.23c1.64.83,1.69,4,1.21,5.53s-2,3.39-3.57,3.33c.73,2.72,2.22,5.82,4.54,7.23s-1.46,1.28-1.46,1.28-4.06-3.13-5.56-6.48a13.88,13.88,0,0,1-.32-9.61,7.52,7.52,0,0,1,4.06-4.65c1.68-.59,4.85-.79,6.08-.18S118.27,260.35,118.27,260.35Z"/><path class="cls-1" d="M117.47,280.92c-5.43,1.18-11-3.16-12.43-9.68s1.85-12.77,7.29-14,11,3.16,12.43,9.67S122.91,279.73,117.47,280.92Zm-4.56-21c-4,.86-6.29,5.66-5.19,10.7s5.21,8.45,9.17,7.58,6.29-5.66,5.19-10.7S116.87,259.09,112.91,260Z"/><path class="cls-2" d="M115.2,272.64a1.55,1.55,0,0,1-.87,1.95c-.69.15-1.41-.49-1.61-1.41a1.55,1.55,0,0,1,.88-1.95C114.28,271.08,115,271.71,115.2,272.64Z"/><path class="cls-1" d="M122.24,257.42a11.88,11.88,0,0,1,4.17,3.18,15.1,15.1,0,0,1,2.69,4.7,17,17,0,0,1,.93,5.46,17.71,17.71,0,0,1-.27,2.81,11.07,11.07,0,0,1-.33,1.38c-.06.23-.12.46-.19.69l-.25.67-.26.66c-.1.22-.21.43-.32.65a11.07,11.07,0,0,1-.69,1.26c-.27.39-.51.81-.82,1.18l-.46.56-.23.28-.25.26a12.69,12.69,0,0,1-4.79,3.16,11.38,11.38,0,0,1-5.55.58,10,10,0,0,1-4.84-2.12,12.22,12.22,0,0,0,4.84,1,11.68,11.68,0,0,0,4.82-1.07,12.38,12.38,0,0,0,3.94-3,14.12,14.12,0,0,0,2.54-4.25,16,16,0,0,0,1-4.84,17.86,17.86,0,0,0-.52-4.94A15.87,15.87,0,0,0,122.24,257.42Z"/><path class="cls-1" d="M107,280.3a11.76,11.76,0,0,1-3.91-3.19,14.81,14.81,0,0,1-2.49-4.59,17,17,0,0,1-.83-5.28c0-.45,0-.9.08-1.35s.13-.9.2-1.35a8.87,8.87,0,0,1,.32-1.33c.06-.22.11-.44.18-.66l.24-.65.25-.64c.09-.21.2-.41.3-.62a12.81,12.81,0,0,1,.66-1.21l.38-.58a4.57,4.57,0,0,1,.41-.57c.29-.36.57-.73.89-1.07l1-1c.37-.3.74-.58,1.11-.85s.79-.5,1.19-.73.84-.39,1.26-.58l.31-.14.33-.1.67-.19a7.58,7.58,0,0,1,1.34-.27,9.56,9.56,0,0,1,2.67-.06,9.68,9.68,0,0,1,4.76,1.82,12,12,0,0,0-4.7-.73,11.69,11.69,0,0,0-1.19.12,9,9,0,0,0-1.17.26,8.92,8.92,0,0,0-1.14.37l-.55.22-.28.11-.27.15a11.83,11.83,0,0,0-3.73,2.94,14.11,14.11,0,0,0-2.41,4.12,15.54,15.54,0,0,0-1,4.66,18.12,18.12,0,0,0,.42,4.76A16,16,0,0,0,107,280.3Z"/><path class="cls-1" d="M153.47,227.63c1.26,5.79-1.53,11.31-6.24,12.34s-9.54-2.84-10.8-8.63S138,220,142.67,219,152.21,221.85,153.47,227.63Z"/><path class="cls-2" d="M148.32,220.74A10.42,10.42,0,0,0,142.1,223c1.64.83,1.68,4,1.2,5.53s-2,3.39-3.56,3.33c.72,2.72,2.22,5.82,4.54,7.23s-1.46,1.28-1.46,1.28-4.06-3.13-5.57-6.48a13.94,13.94,0,0,1-.32-9.61A7.52,7.52,0,0,1,141,219.6c1.68-.59,4.86-.79,6.08-.18S148.32,220.74,148.32,220.74Z"/><path class="cls-1" d="M147.53,241.31c-5.44,1.18-11-3.16-12.43-9.68s1.85-12.77,7.28-14,11,3.16,12.43,9.67S153,240.12,147.53,241.31Zm-4.57-21c-4,.86-6.29,5.66-5.19,10.7s5.21,8.44,9.17,7.58,6.29-5.66,5.2-10.7S146.93,219.48,143,220.35Z"/><path class="cls-2" d="M144.59,233.17a1.55,1.55,0,0,1-.88,2c-.68.15-1.4-.48-1.6-1.41a1.56,1.56,0,0,1,.87-2C143.67,231.62,144.39,232.25,144.59,233.17Z"/><path class="cls-1" d="M134.18,237.1a9.74,9.74,0,0,1-1.92-3,12.71,12.71,0,0,1-.92-3.43,12.48,12.48,0,0,1,.1-3.56,9.75,9.75,0,0,1,1.21-3.32c-.07,1.18-.15,2.3-.14,3.41a30.32,30.32,0,0,0,.19,3.31,28.58,28.58,0,0,0,.58,3.26C133.52,234.9,133.85,236,134.18,237.1Z"/><path class="cls-1" d="M151.57,217.24a12.32,12.32,0,0,1,4.62,3.32,15.65,15.65,0,0,1,3,5.1,17.08,17.08,0,0,1,.9,6c0,.51,0,1-.13,1.54s-.14,1-.26,1.52-.26,1-.43,1.49-.34,1-.56,1.45-.45.94-.72,1.39l-.42.67a5.7,5.7,0,0,1-.44.65,14.69,14.69,0,0,1-2.15,2.31,12.59,12.59,0,0,1-5.62,2.77,11.36,11.36,0,0,1-6-.35,10.9,10.9,0,0,1-4.75-3.19,13,13,0,0,0,4.95,2.12,11.18,11.18,0,0,0,5.36-.26,11.77,11.77,0,0,0,4.68-2.64,13.55,13.55,0,0,0,3.14-4.38,15.53,15.53,0,0,0,1.3-5.24,17.65,17.65,0,0,0-.49-5.37A15.82,15.82,0,0,0,151.57,217.24Z"/><path class="cls-1" d="M146,187.83l-6.79,0c-9.27-16.47-18.34-17.88-18.34-17.88a12.83,12.83,0,0,1,5.36,1.16,12.93,12.93,0,0,0-7.79-3.21,13.36,13.36,0,0,0-8.63,3.23s4.45-1.79,6.23-.72a14.92,14.92,0,0,0-10,5.55c-2.85,3.38-10.35,17.65-10.64,18.19l1.36-5.25L81.4,207.66l38.46-53.37a1.12,1.12,0,0,1,.73-.43,1.77,1.77,0,0,1,.41-.05,3.14,3.14,0,0,1,2,.7,3,3,0,0,1,.48.52l3.37,4.92c-.38-.56-3.84-1.5-.48,4.48s6.3,4,6.3,4Z"/><path class="cls-1" d="M122.21,203.13,123.46,253l2.27-8.32L125,216.14s.19,7.35,2.94,6.75,3.73-2.66,3.19-11.44S130,197.1,130,197.1,127,202,122.21,203.13Z"/><path class="cls-1" d="M102.63,260.79c-2.81,5.14-.56,12.95-.56,12.95,3.21,10.53,8.06,11.53,8.06,11.53l.4,10.55,8.31-5.69-9.45,11.38a1.94,1.94,0,0,1-3.23-.36L93.64,276.38l6.6,7.62s-.65-19.58-.71-29.49-.65-13.49,3.7-14.43,6.06,11.37,6.06,11.37l-.78-50.32,8.42,24.69.5,29c-3.08-1.64-8.29-.63-8.29-.63S105.44,255.66,102.63,260.79Z"/><path class="cls-1" d="M79.65,248.74l-7.94-15.68c-.46-1-3.46-8.18,2.87-15.95l.09-.11,4.64-6.43c-.21.38-6.63,12.48-6.78,16.38C72.44,229.43,76.56,240.68,79.65,248.74Z"/><path class="cls-1" d="M169.45,229.16l-9.31,11.22c2.09-4.2,4.46-9.36,4.72-11.62.47-4.12-11.18-20.11-11.18-20.11l8.67,7.88-10.2-19.68,17.6,25.66A5.54,5.54,0,0,1,169.45,229.16Z"/><path class="cls-1" d="M113.83,310.16c1.59-2.52,3.32-4.93,5.09-7.3s3.59-4.7,5.45-7,3.77-4.55,5.75-6.76,4-4.39,6.11-6.46c-1.59,2.52-3.31,4.93-5.08,7.3s-3.59,4.71-5.45,7-3.78,4.55-5.75,6.76S116,308.09,113.83,310.16Z"/><path class="cls-1" d="M139.26,278.93c3-4.11,6.1-8.1,9.26-12.06,1.57-2,3.18-3.94,4.78-5.91l4.84-5.84,4.92-5.79c1.67-1.91,3.31-3.84,5-5.73,3.35-3.79,6.75-7.55,10.28-11.2-3,4.11-6.1,8.1-9.26,12.06-1.57,2-3.19,3.94-4.78,5.91l-4.85,5.84L154.53,262c-1.66,1.91-3.3,3.84-5,5.72C146.18,271.52,142.79,275.28,139.26,278.93Z"/><path class="cls-2" d="M125.38,312.48c.87-1.6,1.82-3.14,2.79-4.67.49-.77,1-1.51,1.49-2.27l1.54-2.24,1.58-2.21c.54-.72,1.07-1.46,1.63-2.17,1.1-1.44,2.23-2.85,3.44-4.21-.86,1.6-1.81,3.15-2.79,4.67-.48.77-1,1.51-1.48,2.27L132,303.89l-1.58,2.21c-.55.72-1.07,1.45-1.63,2.17C127.73,309.71,126.6,311.12,125.38,312.48Z"/><path class="cls-2" d="M166.69,263.19c2.84-3.76,5.8-7.42,8.81-11,1.49-1.82,3-3.59,4.55-5.39.76-.9,1.54-1.78,2.31-2.67a7.6,7.6,0,0,1,7.11-2.53l3.48.56c2.32.4,4.64.78,7,1.21,4.63.84,9.24,1.74,13.84,2.81-4.7-.36-9.38-.9-14-1.49-2.34-.28-4.66-.62-7-.93l-3.49-.51a6.21,6.21,0,0,0-5.61,2c-.78.87-1.56,1.76-2.35,2.63-1.58,1.73-3.15,3.48-4.76,5.2C173.3,256.49,170.06,259.89,166.69,263.19Z"/><path class="cls-2" d="M174.84,319.29c4.4,0,8.78.14,13.17.36,2.19.09,4.38.24,6.57.36,1.09.06,2.19.15,3.28.23l.75,0a5.84,5.84,0,0,0,.73,0,6.73,6.73,0,0,0,1.41-.33,7.22,7.22,0,0,0,1.91-1l.28-.24.28-.26,2.4-2.25c1.62-1.48,3.22-3,4.86-4.44,3.26-2.93,6.56-5.83,10-8.59-2.93,3.28-6,6.44-9.06,9.56-1.53,1.57-3.11,3.09-4.66,4.64l-2.37,2.29a8.25,8.25,0,0,1-3.05,1.94,8.43,8.43,0,0,1-1.79.4c-.3,0-.61.05-.91.05s-.63,0-.89-.05c-1.09-.09-2.19-.17-3.28-.28-2.18-.22-4.37-.4-6.55-.65C183.54,320.51,179.18,320,174.84,319.29Z"/><path class="cls-1" d="M194,298.26a16.73,16.73,0,0,1-1.9.31c-8,.86-15.12-3.8-15.83-10.4s5.24-12.68,13.25-13.54a16.34,16.34,0,0,1,10.54,2.31,10.65,10.65,0,0,1,1.85,17.13A16,16,0,0,1,194,298.26Zm-5.79-20.65c-5.69,1.24-9.72,5.59-9.22,10.26.55,5.1,6.3,8.68,12.82,8a13.59,13.59,0,0,0,8.16-3.72,8.32,8.32,0,0,0,2.66-6.8h0a8.32,8.32,0,0,0-4.05-6.08,13.5,13.5,0,0,0-8.76-1.9C189.29,277.41,188.75,277.5,188.23,277.61Z"/><path class="cls-1" d="M200.29,286.68c-.29,3.63-3.92,6.79-8.66,7.3-5.22.56-9.8-2.28-10.24-6.36s3.43-7.84,8.65-8.4c3.87-.42,7.4,1,9.14,3.5l0,0c-1.16-1.4-4.67-2.54-7.77-2.3a7.26,7.26,0,0,1,4.55,2c-2.57-1.54-6.29-.73-6.29-.73s5.78.05,6.65,3.53a6.56,6.56,0,0,1-1.8,6A9.72,9.72,0,0,0,200.29,286.68Z"/><path class="cls-2" d="M190.17,287.1a1.21,1.21,0,1,1-1.46-1.18A1.34,1.34,0,0,1,190.17,287.1Z"/><path class="cls-2" d="M176.82,282.09c-.42.75-1.14,1.14-1.63.88s-.53-1.09-.11-1.84,1.14-1.15,1.62-.88S177.23,281.34,176.82,282.09Z"/><path class="cls-1" d="M210.69,206.53c-3.12.68-7.83-1.24-12.18-5.23a22.39,22.39,0,0,1-5.48-7.37c-1.19-2.82-1.09-5.19.28-6.68s3.73-1.8,6.63-.86a22.25,22.25,0,0,1,7.82,4.84h0c5.6,5.13,7.83,11.18,5.2,14.05A4.25,4.25,0,0,1,210.69,206.53Zm-14.51-17.87a1.61,1.61,0,0,0-.85.44c-.59.64-.51,2.05.22,3.76a19.57,19.57,0,0,0,4.81,6.43c4.84,4.44,9.43,5.4,10.58,4.14s-.19-5.75-5-10.19h0A19.58,19.58,0,0,0,199.1,189,5.93,5.93,0,0,0,196.18,188.66Z"/><path class="cls-2" d="M198.08,190.42a9.43,9.43,0,0,1,3.24,1.18,16.19,16.19,0,0,1,2.79,2,18.4,18.4,0,0,1,2.33,2.5,12.35,12.35,0,0,1,1.73,3c-.88-.74-1.7-1.49-2.52-2.23l-2.45-2.21c-.82-.73-1.64-1.45-2.49-2.15S199,191.11,198.08,190.42Z"/><path class="cls-2" d="M197.7,191.7a11.13,11.13,0,0,1,3.18,1.24,15.88,15.88,0,0,1,2.77,2,15,15,0,0,1,2.29,2.55,10.19,10.19,0,0,1,1.52,3.06c-.8-.82-1.56-1.61-2.34-2.37s-1.57-1.49-2.38-2.22-1.63-1.42-2.47-2.12S198.57,192.44,197.7,191.7Z"/><path class="cls-1" d="M199.49,184.39a13.86,13.86,0,0,1,1.93.19,18.16,18.16,0,0,1,1.9.47,14.06,14.06,0,0,1,1.84.68c.61.25,1.2.54,1.79.85a25.61,25.61,0,0,1,3.31,2.19,19,19,0,0,1,1.52,1.31q.74.69,1.41,1.44c.46.5.89,1,1.31,1.57a18.14,18.14,0,0,1,1.14,1.71c.35.6.68,1.21,1,1.85a18.44,18.44,0,0,1,.78,2,12,12,0,0,1,.56,4.5,8.94,8.94,0,0,1-.54,2.43,7.58,7.58,0,0,1-1.35,2.26A7.31,7.31,0,0,1,214,209.5a8.65,8.65,0,0,1-2.36.87,11.69,11.69,0,0,1-4.57,0,18.1,18.1,0,0,1-4-1.35,19.94,19.94,0,0,1-1.83-1c-.58-.36-1.14-.74-1.69-1.14a24,24,0,0,1-3-2.65,25.48,25.48,0,0,1-2.51-3.09,17.52,17.52,0,0,1-2.93-7.2,20,20,0,0,0,3.77,6.5,25.7,25.7,0,0,0,5.63,5,18.74,18.74,0,0,0,6.94,2.84,10.06,10.06,0,0,0,3.75,0,5.8,5.8,0,0,0,3.22-1.84,6,6,0,0,0,1.39-3.44,10.73,10.73,0,0,0-.4-3.74,19.23,19.23,0,0,0-3.54-6.61,25.58,25.58,0,0,0-5.51-5.13A19.77,19.77,0,0,0,199.49,184.39Z"/><path class="cls-1" d="M239.07,212.19c4.87,4.47,7.16,9.89,5.11,12.12s-7.64.41-12.51-4.06-7.16-9.89-5.11-12.12S234.2,207.72,239.07,212.19Z"/><path class="cls-2" d="M236.14,220.28a1.3,1.3,0,0,1,.29,1.79,1.31,1.31,0,0,1-1.82-.13,1.16,1.16,0,1,1,1.53-1.66Z"/><path class="cls-2" d="M228.34,208.14c3.32,1.24,13.32,9.43,15.62,14.13l-.54-3.76-2.23-4.13-3.75-3.57L232.71,208S229.25,207.53,228.34,208.14Z"/><path class="cls-1" d="M242.92,226.5a8.5,8.5,0,0,1-4.35-.41,24.48,24.48,0,0,1-13.31-12.21c-1.18-2.81-1.08-5.18.29-6.67,2.63-2.88,8.84-1.17,14.44,4h0c5.6,5.14,7.84,11.18,5.2,14A4.24,4.24,0,0,1,242.92,226.5Zm-14.5-17.88a1.64,1.64,0,0,0-.86.44c-.58.64-.5,2,.22,3.76a21.89,21.89,0,0,0,11.63,10.67c1.77.57,3.18.53,3.77-.11,1.16-1.26-.2-5.74-5-10.18C234.12,209.5,230.26,208.21,228.42,208.62Z"/><path class="cls-2" d="M230.31,210.38a9.55,9.55,0,0,1,3.24,1.17,16,16,0,0,1,2.79,2,17.94,17.94,0,0,1,2.34,2.51,12.31,12.31,0,0,1,1.72,3c-.88-.75-1.69-1.49-2.52-2.24l-2.45-2.2c-.81-.73-1.64-1.45-2.48-2.15S231.24,211.06,230.31,210.38Z"/><path class="cls-2" d="M229.93,211.65a11.5,11.5,0,0,1,3.18,1.24,15.64,15.64,0,0,1,2.78,2,15.28,15.28,0,0,1,2.28,2.54,10,10,0,0,1,1.52,3.06c-.8-.82-1.55-1.6-2.34-2.36s-1.57-1.5-2.37-2.22-1.63-1.43-2.47-2.12S230.81,212.39,229.93,211.65Z"/><path class="cls-1" d="M222.84,212a6.14,6.14,0,0,1-.75-4.54,5.69,5.69,0,0,1,1.11-2.31,6.29,6.29,0,0,1,.94-.92,6.47,6.47,0,0,1,1.11-.7,7.64,7.64,0,0,1,1.2-.45,8.69,8.69,0,0,1,1.22-.22,8.65,8.65,0,0,1,6.41,2.17,15.26,15.26,0,0,0-4.11-.95,8.08,8.08,0,0,0-4.12.68,5.46,5.46,0,0,0-1.68,1.26,5.84,5.84,0,0,0-.63.85,5.46,5.46,0,0,0-.44,1A8.35,8.35,0,0,0,222.84,212Z"/><path class="cls-1" d="M241.38,209.67c.44.21.86.45,1.28.7s.81.53,1.2.82a17.72,17.72,0,0,1,2.21,1.95,16.77,16.77,0,0,1,3.36,5.09,12.43,12.43,0,0,1,.85,3.17,9.31,9.31,0,0,1-.22,3.61,7,7,0,0,1-.74,1.83,7.71,7.71,0,0,1-1.22,1.63,8.28,8.28,0,0,1-3.41,2,11.18,11.18,0,0,1-3.58.41,15.12,15.12,0,0,1-3.27-.59,17.05,17.05,0,0,1-2.92-1.2c-.46-.24-.91-.49-1.35-.76s-.85-.56-1.26-.86a21.1,21.1,0,0,1-4.24-4.2,19.64,19.64,0,0,1-1.57-2.49c-.22-.43-.44-.87-.63-1.32a11.12,11.12,0,0,1-.48-1.37,24.61,24.61,0,0,0,3.56,4.27,25.35,25.35,0,0,0,4.4,3.38,19.36,19.36,0,0,0,5.1,2.19,10.37,10.37,0,0,0,5.5.08,5.61,5.61,0,0,0,2.38-1.38,5,5,0,0,0,.86-1.09,5.49,5.49,0,0,0,.55-1.27,7.76,7.76,0,0,0,.29-2.75,12,12,0,0,0-.52-2.73,18.47,18.47,0,0,0-2.47-5A24.66,24.66,0,0,0,241.38,209.67Z"/><path class="cls-1" d="M175.05,168.89c4.87,4.47,7.16,9.89,5.11,12.12s-7.64.41-12.51-4.06-7.16-9.89-5.12-12.12S170.18,164.42,175.05,168.89Z"/><path class="cls-2" d="M172.12,177a1.16,1.16,0,1,1-1.82-.13A1.31,1.31,0,0,1,172.12,177Z"/><path class="cls-2" d="M164.31,164.84c3.33,1.24,13.33,9.43,15.63,14.13l-.54-3.76-2.23-4.13-3.76-3.57-4.72-2.81S165.23,164.23,164.31,164.84Z"/><path class="cls-1" d="M178.9,183.19a8.42,8.42,0,0,1-4.36-.4,24.41,24.41,0,0,1-13.3-12.21c-1.19-2.81-1.08-5.18.29-6.67,2.63-2.88,8.84-1.17,14.44,4h0c5.6,5.14,7.84,11.18,5.2,14.05A4.16,4.16,0,0,1,178.9,183.19Zm-14.5-17.88a1.65,1.65,0,0,0-.86.45c-.59.64-.5,2,.22,3.76a21.79,21.79,0,0,0,11.63,10.67c1.77.57,3.18.53,3.77-.11,1.15-1.26-.2-5.74-5-10.18C170.1,166.2,166.24,164.91,164.4,165.31Z"/><path class="cls-2" d="M166.29,167.08a9.55,9.55,0,0,1,3.24,1.17,16.75,16.75,0,0,1,2.79,2,17.29,17.29,0,0,1,2.33,2.51,12.16,12.16,0,0,1,1.73,3c-.88-.75-1.7-1.49-2.52-2.24l-2.45-2.21c-.82-.72-1.64-1.44-2.48-2.14S167.22,167.76,166.29,167.08Z"/><path class="cls-2" d="M165.91,168.35a11.19,11.19,0,0,1,3.18,1.24,16.39,16.39,0,0,1,2.78,2,15.28,15.28,0,0,1,2.28,2.54,9.85,9.85,0,0,1,1.52,3.06c-.8-.82-1.56-1.6-2.34-2.36s-1.57-1.5-2.37-2.22-1.63-1.43-2.47-2.12S166.79,169.09,165.91,168.35Z"/><polygon class="cls-1" points="217.57 203.14 218.48 199.38 225.71 203.84 223.05 206.51 217.57 203.14"/><path class="cls-1" d="M209.47,224.42l-18-4.3a9.64,9.64,0,0,1-5.71-4L179,206.28Z"/><path class="cls-2" d="M300.65,161l95.91-31.2A15.18,15.18,0,0,1,413,134.56L479.9,215a24.84,24.84,0,0,1,1.7,29.49L433.39,318.2a38,38,0,0,1-14.88,13.23L339.12,371a25.27,25.27,0,0,1-32.88-9.55L257.64,281a36.06,36.06,0,0,1-2.82-31.56L281.77,179A30.24,30.24,0,0,1,300.65,161Z"/><path class="cls-1" d="M300.54,220.31c1.23,8.15-.74,15.42-4.39,16.22s-7.63-5.16-8.85-13.31S288,207.8,291.69,207,299.31,212.15,300.54,220.31Z"/><path class="cls-2" d="M297.06,217c-1.15-4.82-5.2-10.85-8.24-5.6s.46-3.42.46-3.42l2.84-1.17,3.14,1.92,2.4,2.65,1.6,4.42,0,2.88Z"/><path class="cls-2" d="M287.41,216.79s2.44,10.28,5.23,14c-2.25-5.95-2.05-9.41-2.05-9.41s2.91,8.95,4.82,10.18l1.52-2.66a18,18,0,0,1-2.52-6.64c-.52-3.66.32-7.65,4-7.85s2.3,7,2.3,7l-.27,6.9-1.19,5.37-3.51,2.89s-2.53-.78-2.68-.89-3.82-4-4.43-7S287.41,216.79,287.41,216.79Z"/><path class="cls-1" d="M333.66,375a27.3,27.3,0,0,1-29.17-12.57L255.88,282a37.93,37.93,0,0,1-3-33.36l27-70.42A32.15,32.15,0,0,1,300,159.08l95.92-31.21a17.17,17.17,0,0,1,18.6,5.38l67,80.44a26.9,26.9,0,0,1,1.84,31.93l-48.21,73.7a40.14,40.14,0,0,1-15.69,13.95L340,372.79A27.06,27.06,0,0,1,333.66,375Zm-33-214,.63,2a28.06,28.06,0,0,0-17.6,16.72l-26.94,70.43a33.81,33.81,0,0,0,2.66,29.77L308,360.34a23.34,23.34,0,0,0,30.21,8.78l79.39-39.53a36,36,0,0,0,14.08-12.52l48.2-73.7a22.67,22.67,0,0,0-1.55-27.05l-66.95-80.45a13.09,13.09,0,0,0-14.18-4.09L301.28,163Z"/><path class="cls-1" d="M313.14,366a6.22,6.22,0,0,1-1.49.15,8.31,8.31,0,0,1-6.56-4l-47.57-78.72c-5.57-9.45-9.94-20-4.36-33.21l29-69.9a8.65,8.65,0,0,1,15.11-1.58l60.77,88.48a20.48,20.48,0,0,1,1,21.66L318.42,362l0,.06A8.7,8.7,0,0,1,313.14,366ZM288.88,177.84a5.8,5.8,0,0,0-4.17,3.51l-29,69.9c-4.83,11.43-1.82,20.56,4.18,30.76l47.55,78.69a5.61,5.61,0,0,0,4.28,2.73c1.57,0,3.05-.92,4.39-2.84l40.6-73.06a17.76,17.76,0,0,0-.89-18.78L295,180.27a5.82,5.82,0,0,0-5.49-2.53C289.32,177.76,289.1,177.8,288.88,177.84Z"/><path class="cls-1" d="M334.57,374.11a7.77,7.77,0,0,1-8.3-11.47l40.61-70.88a28.22,28.22,0,0,1,13.45-11.9l96.92-40.8a4.32,4.32,0,0,1,4.88,1.53,3.91,3.91,0,0,1,.62,4.64C471,263.74,436.44,316,433.26,320.77c-3.4,5.07-9.45,9.13-9.7,9.3l-.15.08-87,43.29A8.06,8.06,0,0,1,334.57,374.11ZM478.31,241.58l-96.92,40.8a25.46,25.46,0,0,0-12.13,10.74L328.64,364a5,5,0,0,0,6.6,7l86.87-43.24c.66-.45,6-4.16,8.88-8.5,3.17-4.73,37.7-57,49.45-75.49.24-.37,0-1-.4-1.41a1.8,1.8,0,0,0-1.73-.77Z"/><path class="cls-1" d="M378.21,270.54a12.15,12.15,0,0,1-12.6-5l-63.45-93.75A9.2,9.2,0,0,1,307,157.82l90.13-28.62a16.37,16.37,0,0,1,17.71,5.27l66.88,81.77a8.73,8.73,0,0,1-3.46,13.62l-98.07,40.06A11.93,11.93,0,0,1,378.21,270.54Zm21-139.06q-.63.14-1.26.33l-90.13,28.62a6.48,6.48,0,0,0-3.4,9.8L367.87,264a9.4,9.4,0,0,0,11.29,3.41l98.07-40.07A6,6,0,0,0,479.6,218L412.72,136.2A13.61,13.61,0,0,0,399.21,131.48Z"/><path class="cls-1" d="M411.89,159.75c-.47,5.22-7,8.9-14.67,8.21s-13.45-5.49-13-10.71,7-8.89,14.67-8.2S412.37,154.53,411.89,159.75Z"/><path class="cls-2" d="M387.32,157.39a10.18,10.18,0,0,1,4.51-4.67,11.58,11.58,0,0,1,6.63-1.27A12.11,12.11,0,0,1,404.7,154a11.47,11.47,0,0,1,3.8,5.23,25.15,25.15,0,0,0-5-3.44,15.29,15.29,0,0,0-5.36-1.61,14,14,0,0,0-5.52.53A18.62,18.62,0,0,0,387.32,157.39Z"/><path class="cls-2" d="M388.73,159.49a7.32,7.32,0,0,1,3.41-4.5,9.16,9.16,0,0,1,5.78-1.29,8.61,8.61,0,0,1,5.33,2.68,8.4,8.4,0,0,1,2.22,5.19,15.13,15.13,0,0,0-3.52-3.75,9.1,9.1,0,0,0-4.31-1.67,10.35,10.35,0,0,0-4.65.57A11.33,11.33,0,0,0,388.73,159.49Z"/><ellipse class="cls-2" cx="396.95" cy="158.09" rx="1.04" ry="1.51" transform="translate(203.73 539.18) rotate(-84.83)"/><path class="cls-1" d="M414.66,163.68a8.61,8.61,0,0,1-1.06,3.13,12.3,12.3,0,0,1-2.1,2.68,15.85,15.85,0,0,1-2.72,2.11,18.79,18.79,0,0,1-3.09,1.51c-.53.19-1.08.4-1.63.55l-.83.22c-.27.07-.55.12-.83.18l-.85.17-.85.11-.85.09-.86,0a8.06,8.06,0,0,1-.85,0l-.86,0c-.57,0-1.14,0-1.71-.08a28.41,28.41,0,0,1-3.4-.58,26,26,0,0,1-3.3-1.08,23.79,23.79,0,0,1-3.13-1.62,17.86,17.86,0,0,1-2.82-2.18c-.23-.21-.44-.42-.65-.64s-.42-.44-.61-.67a17.68,17.68,0,0,1-1.11-1.47c-.17-.25-.33-.52-.49-.79s-.29-.55-.43-.82a12,12,0,0,1-.68-1.75,10,10,0,0,1-.44-3.72,8.68,8.68,0,0,1,1-3.45,7.31,7.31,0,0,1,2.21-2.49,9.16,9.16,0,0,0-1.19,2.74,8.6,8.6,0,0,0-.18,3,10.4,10.4,0,0,0,2.47,5.39,16.74,16.74,0,0,0,4.67,3.74,22.75,22.75,0,0,0,5.59,2.17,26.61,26.61,0,0,0,3,.55c.49,0,1,.11,1.49.13l.75,0H399a24.31,24.31,0,0,0,6-.68c.5-.1,1-.27,1.45-.41s.94-.34,1.41-.51a17.8,17.8,0,0,0,2.67-1.39,13.64,13.64,0,0,0,2.35-1.86A11.41,11.41,0,0,0,414.66,163.68Z"/><path class="cls-1" d="M453.91,212.3c-.47,5.22-7,8.9-14.68,8.21s-13.44-5.49-13-10.71,7-8.89,14.67-8.2S454.39,207.08,453.91,212.3Z"/><path class="cls-2" d="M429.34,209.94a10.25,10.25,0,0,1,4.51-4.68,11.74,11.74,0,0,1,6.63-1.27,12.14,12.14,0,0,1,6.23,2.52,11.42,11.42,0,0,1,3.81,5.23,25.45,25.45,0,0,0-5-3.44,15.29,15.29,0,0,0-5.36-1.61,14,14,0,0,0-5.52.53A18.49,18.49,0,0,0,429.34,209.94Z"/><path class="cls-2" d="M430.75,212a7.32,7.32,0,0,1,3.41-4.5,9.16,9.16,0,0,1,5.78-1.29,8.61,8.61,0,0,1,5.33,2.68,8.45,8.45,0,0,1,2.22,5.19,15.13,15.13,0,0,0-3.52-3.75,9.1,9.1,0,0,0-4.31-1.67,10.34,10.34,0,0,0-4.65.56A11.48,11.48,0,0,0,430.75,212Z"/><path class="cls-2" d="M440.46,210.78c0,.57-.76,1-1.59.89s-1.46-.59-1.4-1.17.76-1,1.59-.89S440.52,210.21,440.46,210.78Z"/><path class="cls-1" d="M444.88,198.34A18.37,18.37,0,0,1,456,202.5a13.88,13.88,0,0,1,3.91,5.28,12.42,12.42,0,0,1,.79,7,13.51,13.51,0,0,1-1.14,3.46,14.29,14.29,0,0,1-2,3,18.16,18.16,0,0,1-5.37,4.28,21,21,0,0,1-3.08,1.34,23.5,23.5,0,0,1-3.19.87,26.37,26.37,0,0,1-6.51.43A27.55,27.55,0,0,1,433,227a24.29,24.29,0,0,1-5.95-2.85,19.45,19.45,0,0,1-4.91-4.68,16.06,16.06,0,0,1-1.74-3,14.26,14.26,0,0,1-1-3.46,12.29,12.29,0,0,1,1-7c.13-.27.24-.53.38-.78l.46-.74.22-.36.26-.34c.17-.23.35-.45.52-.66s.39-.41.58-.61a5.39,5.39,0,0,1,.59-.58,11.23,11.23,0,0,1,1.26-1l.66-.45c.22-.14.45-.27.68-.4a15.15,15.15,0,0,1,1.39-.71,15.53,15.53,0,0,1,2.87-1c.49-.12,1-.2,1.47-.3l1.46-.19,1.47,0c.49,0,1,0,1.45.07a21,21,0,0,0-5.45,1.42,16.56,16.56,0,0,0-4.76,3,13.35,13.35,0,0,0-1,1c-.17.17-.3.37-.45.55s-.3.36-.43.55l-.39.6-.19.29-.16.32-.32.63c-.09.21-.17.43-.26.65a10,10,0,0,0-.45,5.55,11.93,11.93,0,0,0,2.42,5,16.81,16.81,0,0,0,4.21,3.72,22.82,22.82,0,0,0,10.68,3.3,21.91,21.91,0,0,0,11-2.07,15.49,15.49,0,0,0,4.52-3.33,11.13,11.13,0,0,0,2.67-4.9,10.06,10.06,0,0,0-.26-5.57,12.68,12.68,0,0,0-2.91-4.78A20.12,20.12,0,0,0,444.88,198.34Z"/><path class="cls-1" d="M394.19,234.84c-.47,5.23-7.05,8.9-14.68,8.21s-13.44-5.48-13-10.7,7-8.9,14.68-8.21S394.66,229.62,394.19,234.84Z"/><path class="cls-2" d="M369.62,232.48a10.11,10.11,0,0,1,4.5-4.67,11.59,11.59,0,0,1,6.63-1.27,12.16,12.16,0,0,1,6.24,2.51,11.52,11.52,0,0,1,3.81,5.24,25.57,25.57,0,0,0-5-3.45,15.24,15.24,0,0,0-5.35-1.61,14.07,14.07,0,0,0-5.53.53A18.69,18.69,0,0,0,369.62,232.48Z"/><path class="cls-2" d="M371,234.58a7.32,7.32,0,0,1,3.41-4.5,9.11,9.11,0,0,1,5.79-1.28,8.6,8.6,0,0,1,5.32,2.67,8.37,8.37,0,0,1,2.22,5.2,15.34,15.34,0,0,0-3.51-3.76,9.29,9.29,0,0,0-4.31-1.67,10.34,10.34,0,0,0-4.65.57A11.29,11.29,0,0,0,371,234.58Z"/><path class="cls-2" d="M380.74,233.32c-.05.57-.77,1-1.59.9s-1.46-.6-1.41-1.17.77-1,1.59-.9S380.79,232.75,380.74,233.32Z"/><path class="cls-1" d="M397,238.77a8.39,8.39,0,0,1-1.07,3.13,11.83,11.83,0,0,1-2.1,2.69,16.41,16.41,0,0,1-2.71,2.11,20,20,0,0,1-3.09,1.5c-.54.2-1.08.4-1.63.55l-.83.22-.84.18-.84.17-.85.11c-.29,0-.57.07-.86.09l-.85.06c-.29,0-.57,0-.86,0l-.86,0c-.57,0-1.14,0-1.71-.08a27.92,27.92,0,0,1-3.39-.58,26.1,26.1,0,0,1-3.31-1.08,22.53,22.53,0,0,1-3.12-1.62,18.4,18.4,0,0,1-2.83-2.18c-.22-.2-.43-.42-.64-.64s-.42-.44-.62-.67a17.57,17.57,0,0,1-1.1-1.47,9.21,9.21,0,0,1-.49-.78l-.44-.83a12,12,0,0,1-.68-1.75,10.44,10.44,0,0,1-.44-3.72,8.64,8.64,0,0,1,1-3.44,7.15,7.15,0,0,1,2.21-2.5,8.68,8.68,0,0,0-1.19,2.74,8.36,8.36,0,0,0-.18,3,10.21,10.21,0,0,0,2.47,5.39,16.56,16.56,0,0,0,4.66,3.74,22.27,22.27,0,0,0,5.59,2.17,27.49,27.49,0,0,0,3,.55c.5,0,1,.11,1.5.13l.75,0h.75a24,24,0,0,0,6-.68c.49-.1,1-.27,1.45-.41s.94-.34,1.41-.51A16.4,16.4,0,0,0,392.8,243a13.17,13.17,0,0,0,2.35-1.86A11.46,11.46,0,0,0,397,238.77Z"/><path class="cls-1" d="M354.19,180.93c-.47,5.22-7,8.89-14.68,8.2s-13.44-5.48-13-10.7,7-8.9,14.68-8.21S354.66,175.7,354.19,180.93Z"/><path class="cls-2" d="M329.62,178.56a10.18,10.18,0,0,1,4.51-4.67,11.66,11.66,0,0,1,6.63-1.27,12.16,12.16,0,0,1,6.23,2.51,11.52,11.52,0,0,1,3.81,5.24,25.51,25.51,0,0,0-5-3.45,15.35,15.35,0,0,0-5.36-1.61,14.08,14.08,0,0,0-5.53.53A18.82,18.82,0,0,0,329.62,178.56Z"/><path class="cls-2" d="M331,180.66a7.36,7.36,0,0,1,3.42-4.5,9.08,9.08,0,0,1,5.78-1.28,8.6,8.6,0,0,1,5.33,2.67,8.48,8.48,0,0,1,2.22,5.2,15.57,15.57,0,0,0-3.52-3.76,9.25,9.25,0,0,0-4.31-1.67,10.34,10.34,0,0,0-4.65.57A11.41,11.41,0,0,0,331,180.66Z"/><path class="cls-2" d="M340.74,179.4c-.05.57-.76,1-1.59.9s-1.46-.6-1.41-1.17.77-1,1.6-.9S340.79,178.83,340.74,179.4Z"/><path class="cls-1" d="M357,184.86A8.56,8.56,0,0,1,355.9,188a12.42,12.42,0,0,1-2.1,2.69,16.36,16.36,0,0,1-2.72,2.11,19.58,19.58,0,0,1-3.09,1.5c-.54.2-1.08.4-1.63.55l-.83.23-.84.17-.84.17c-.28,0-.57.08-.85.11l-.85.09-.86.06c-.28,0-.57,0-.86,0h-.85c-.57,0-1.14-.05-1.71-.09a28.08,28.08,0,0,1-3.4-.58,26.63,26.63,0,0,1-3.31-1.08,23.11,23.11,0,0,1-3.12-1.62,18.4,18.4,0,0,1-2.83-2.18c-.22-.2-.43-.42-.64-.64s-.42-.44-.62-.67a16.07,16.07,0,0,1-1.1-1.47,9.21,9.21,0,0,1-.49-.78l-.43-.83a11,11,0,0,1-.69-1.75,10.39,10.39,0,0,1-.44-3.71,8.64,8.64,0,0,1,1-3.45,7.25,7.25,0,0,1,2.21-2.5,9.16,9.16,0,0,0-1.19,2.74,8.61,8.61,0,0,0-.18,3,10.37,10.37,0,0,0,2.47,5.39,16.74,16.74,0,0,0,4.67,3.74,22,22,0,0,0,5.59,2.17,26.87,26.87,0,0,0,2.95.55c.5.05,1,.11,1.5.13l.75.05h.75a23.86,23.86,0,0,0,6-.68c.49-.1,1-.27,1.45-.41s.94-.34,1.41-.51a17.75,17.75,0,0,0,2.67-1.38,14.09,14.09,0,0,0,2.35-1.87A11.61,11.61,0,0,0,357,184.86Z"/><path class="cls-1" d="M401.44,196.6c-.48,5.22-7.05,8.89-14.68,8.2s-13.44-5.48-13-10.7,7-8.89,14.68-8.2S401.91,191.38,401.44,196.6Z"/><path class="cls-2" d="M376.87,194.23a10.11,10.11,0,0,1,4.5-4.67,11.67,11.67,0,0,1,6.63-1.27,12.17,12.17,0,0,1,6.24,2.52A11.47,11.47,0,0,1,398,196a24.73,24.73,0,0,0-5-3.44,15.32,15.32,0,0,0-5.35-1.62,13.89,13.89,0,0,0-5.53.54A18.66,18.66,0,0,0,376.87,194.23Z"/><path class="cls-2" d="M378.27,196.33a7.38,7.38,0,0,1,3.41-4.5,9.17,9.17,0,0,1,5.79-1.28,8.6,8.6,0,0,1,5.32,2.67,8.39,8.39,0,0,1,2.22,5.2,15.34,15.34,0,0,0-3.51-3.76,9.28,9.28,0,0,0-4.32-1.67,10.29,10.29,0,0,0-4.64.57A11.41,11.41,0,0,0,378.27,196.33Z"/><path class="cls-2" d="M388,195.07c-.05.57-.77,1-1.6.9s-1.45-.6-1.4-1.17.76-1,1.59-.9S388,194.5,388,195.07Z"/><path class="cls-1" d="M405.12,191.3a8.73,8.73,0,0,1,1.16,1.39,11.12,11.12,0,0,1,.87,1.64,9.94,9.94,0,0,1,.77,3.82,11.87,11.87,0,0,1-.72,4c-.13.32-.25.65-.4,1s-.3.62-.47.91-.35.6-.54.89a9.71,9.71,0,0,1-.6.83,18.14,18.14,0,0,1-1.35,1.54c-.24.24-.5.46-.75.69l-.78.65a18.44,18.44,0,0,1-3.4,2.1,22.63,22.63,0,0,1-3.7,1.39,25.26,25.26,0,0,1-3.83.7,27.83,27.83,0,0,1-3.87.06q-.48,0-1-.09c-.32,0-.64-.07-.95-.12l-1-.15-.48-.08-.46-.12c-.63-.16-1.25-.29-1.86-.5-.3-.1-.61-.19-.91-.3s-.6-.24-.9-.35l-.88-.37-.87-.43c-.28-.15-.57-.29-.84-.46l-.82-.5a19.86,19.86,0,0,1-3-2.36,17.25,17.25,0,0,1-2.43-3,13.38,13.38,0,0,1-.91-1.66c-.15-.28-.24-.59-.36-.88a5.45,5.45,0,0,1-.29-.89l-.22-.9c-.07-.3-.1-.62-.14-.92l0-.45a3.53,3.53,0,0,1,0-.46,8.7,8.7,0,0,1,0-.89,13.11,13.11,0,0,0,3.26,5.79,17.2,17.2,0,0,0,2.53,2.21c.46.31.92.64,1.41.92s1,.57,1.47.8a24.33,24.33,0,0,0,6.39,2.05,25.41,25.41,0,0,0,6.69.27,22.14,22.14,0,0,0,6.51-1.62,16.45,16.45,0,0,0,5.53-3.74,12.2,12.2,0,0,0,2-2.71,10.71,10.71,0,0,0,1.08-3.17,10.18,10.18,0,0,0,0-3.35A11.63,11.63,0,0,0,405.12,191.3Z"/><path class="cls-1" d="M378,184.57a12.86,12.86,0,0,1,5.52-2.85,17.72,17.72,0,0,1,6.24-.43,17.33,17.33,0,0,1,6,1.75,12.48,12.48,0,0,1,4.76,4,22.92,22.92,0,0,0-11-4A23.5,23.5,0,0,0,378,184.57Z"/><path class="cls-1" d="M317.36,181.41l-9.26-13.68a2,2,0,0,1,1.07-3.06L330,158.05c-1.31.46-17.39,6.61-18.56,8.89S317,180.79,317.36,181.41Z"/><path class="cls-1" d="M425.48,158.83c-.56-.59-18.73-19.29-24.66-19.07s-34.35,6.71-34.35,6.71l32.83-10.42a8.67,8.67,0,0,1,.84-.22,9.22,9.22,0,0,1,9.14,3.19Z"/><polygon class="cls-1" points="427.62 174.59 411.33 168.37 408.05 170.91 427.62 174.59"/><path class="cls-1" d="M380,161s-8-2.77-10.75-3.84-3.47,2.09-2.42,3.14L352.41,156l-17.06,5.35s38.25,11.5,41.59,12.55a2.87,2.87,0,0,0,4-3.05l9.88,2.5-8.16-6.81Z"/><path class="cls-1" d="M401.23,208.13l20.38,5.56s-1.43-6.88,1.93-10l-16.36-4.45A18.62,18.62,0,0,1,401.23,208.13Z"/><path class="cls-1" d="M428.83,242.29l-51.35,21a6,6,0,0,1-.82.25,4.88,4.88,0,0,1-5.1-2l-27-39.82,15.8,18.86-5.73-11.62,9.18,10.87s5.78,7.52,12.1,8,15.33-2.18,15.33-2.18-.47,1.68-4.71,3.16a74,74,0,0,1-11.15,2.42s8.14,3.89,19.48-3.6l14.35-.11Z"/><path class="cls-1" d="M476.46,222.15a1.48,1.48,0,0,1-.91,1.06l-42.92,17.53,8.55-5.29-25.26-4.91,3-3.15-28.95-8.86,40.8,8.11-2.19,2.53S440.11,232,450,225.05c0,0,9.65-4.7,9.44-12.6S446,192.27,445.63,191.91l7.69,5.16-12.75-19.8,35.59,43.52A1.48,1.48,0,0,1,476.46,222.15Z"/><polygon class="cls-1" points="329.08 198.72 337.43 206.27 374.81 216.3 338.96 209.95 341.09 216.47 329.08 198.72"/><path class="cls-1" d="M389,222.82a13.81,13.81,0,0,1,4.93,2.34A15.29,15.29,0,0,1,396,227a14.06,14.06,0,0,1,1.74,2.27.86.86,0,1,1-1.47.89.54.54,0,0,1-.05-.11h0a12.41,12.41,0,0,0-1.21-2.23,14.42,14.42,0,0,0-1.65-2A13.68,13.68,0,0,0,389,222.82Z"/><path class="cls-1" d="M469.57,252.43c-4.14,6.39-9.07,13.94-14.08,21.58-12.88,19.64-26.28,39.9-28.19,42.76a32.34,32.34,0,0,1-7.45,7.13l-54.58,27.18h0l-32,15.93a.85.85,0,0,1-.22.08c-.27.06-.52-.27-.53-.28a.47.47,0,0,1,0-.6l18.39-32.09h0L360.16,318h0l13-22.62a20.94,20.94,0,0,1,10-8.85l9.83-4.14,40.86-17.2,34.32-14.44A1.18,1.18,0,0,1,469.57,252.43Z"/><path class="cls-2" d="M371.71,336.88c-2,.44-3.68.24-4.59-.87-2.51-3.09,3-10.34,9.46-15.59a39.76,39.76,0,0,1,10.16-6.22c3.44-1.34,5.87-1.3,7,.13h0c1.16,1.42.7,3.81-1.31,6.91a39.75,39.75,0,0,1-8.15,8.67C380.18,333.27,375.33,336.09,371.71,336.88Zm17.83-21.77a15.4,15.4,0,0,0-2.18.68,38.22,38.22,0,0,0-9.7,6c-7.43,6-10.37,11.75-9.21,13.18s7.34-.29,14.78-6.34a38.64,38.64,0,0,0,7.8-8.28c1.77-2.73,1.89-4.32,1.41-4.9h0C392.1,315,391.17,314.76,389.54,315.11Z"/><path class="cls-2" d="M371.69,331.86a33.61,33.61,0,0,0,5.15-2.4,43,43,0,0,0,4.66-3.12l1.09-.88c.18-.15.37-.29.55-.45l.52-.47,1-.93c.33-.34.67-.66,1-1l.51-.49.48-.52,1-1c.65-.7,1.25-1.44,1.94-2.12-.44.85-.9,1.71-1.41,2.53l-.83,1.19c-.14.2-.28.4-.43.59l-.46.56c-.31.37-.62.75-.94,1.11s-.69.7-1,1L384,326l-.56.48c-.37.31-.74.63-1.12.93a24.11,24.11,0,0,1-5,3A16.21,16.21,0,0,1,371.69,331.86Z"/><path class="cls-2" d="M372.18,329.89a41.17,41.17,0,0,0,4.4-1.86,27.8,27.8,0,0,0,4-2.4,21.6,21.6,0,0,0,3.46-3.09,25,25,0,0,0,2.81-3.84,12.23,12.23,0,0,1-2,4.5,14.71,14.71,0,0,1-3.5,3.54A17.31,17.31,0,0,1,377,329,15,15,0,0,1,372.18,329.89Z"/><path class="cls-2" d="M417.73,298.58a7.66,7.66,0,0,1-2.59.18,3.26,3.26,0,0,1-2.32-1.25c-2.45-3.38,3.14-10.93,9.63-16.32,5.75-4.77,11.64-7.58,15-7.15a3.26,3.26,0,0,1,2.32,1.25h0c2.44,3.38-3.14,10.93-9.64,16.32C425.68,295.32,421.12,297.84,417.73,298.58Zm17.51-22.7c-3.06.67-7.51,3.14-11.69,6.62-7,5.78-10.68,12.16-9.34,14a1.53,1.53,0,0,0,1.14.55c2.83.36,8.47-2.42,13.7-6.76,7-5.78,10.68-12.17,9.34-14h0a1.6,1.6,0,0,0-1.14-.56A6.3,6.3,0,0,0,435.24,275.88Z"/><path class="cls-2" d="M417.47,293.28a29,29,0,0,0,5.25-2.39,38.67,38.67,0,0,0,4.72-3.19l1.1-.92c.38-.29.71-.62,1.07-.95s.71-.63,1.05-1l1-1c.17-.17.35-.33.51-.51l.48-.53,1-1.07c.65-.72,1.25-1.48,1.94-2.19-.43.88-.89,1.75-1.4,2.59l-.82,1.23-.42.61c-.15.2-.31.39-.47.58-.31.38-.62.77-.94,1.15s-.68.71-1,1.07a24.76,24.76,0,0,1-2.21,2,23.82,23.82,0,0,1-5.09,3.08A16,16,0,0,1,417.47,293.28Z"/><path class="cls-2" d="M418,291.16a33.85,33.85,0,0,0,4.52-1.82,24.94,24.94,0,0,0,4.06-2.46,21.74,21.74,0,0,0,1.82-1.51c.57-.54,1.12-1.11,1.64-1.71a28.77,28.77,0,0,0,2.78-4,13,13,0,0,1-1.92,4.62,15.24,15.24,0,0,1-1.59,2,16.14,16.14,0,0,1-1.91,1.69,16.57,16.57,0,0,1-4.48,2.36A14.28,14.28,0,0,1,418,291.16Z"/><path class="cls-2" d="M410.07,291.56a10.81,10.81,0,0,1,1-4.27,16.64,16.64,0,0,1,2.24-3.74,17.43,17.43,0,0,1,3.07-3.06,13.49,13.49,0,0,1,3.77-2.19,40.26,40.26,0,0,0-5.9,6A25.92,25.92,0,0,0,410.07,291.56Z"/><path class="cls-2" d="M442.62,280.6a15.56,15.56,0,0,1-1.16,5,24.69,24.69,0,0,1-2.48,4.54,32,32,0,0,1-16.44,12,20.74,20.74,0,0,1-5.14.89,12.73,12.73,0,0,1-2.62-.17,9.08,9.08,0,0,1-1.27-.32,5.93,5.93,0,0,1-1.17-.54,10.77,10.77,0,0,0,4.89.06,24.58,24.58,0,0,0,4.72-1.4,39.12,39.12,0,0,0,8.58-4.82,39.87,39.87,0,0,0,7.19-6.73A26.06,26.06,0,0,0,442.62,280.6Z"/><path class="cls-2" d="M397.91,316.3a9.53,9.53,0,0,1,0,1.6,5.18,5.18,0,0,1-.11.79c-.05.27-.08.54-.15.8s-.12.52-.2.78-.16.51-.25.77c-.15.52-.37,1-.56,1.52a27.76,27.76,0,0,1-3.25,5.58A38.4,38.4,0,0,1,384,337c-.9.59-1.82,1.15-2.77,1.68a31.63,31.63,0,0,1-2.93,1.42,24.41,24.41,0,0,1-6.37,1.81,14.62,14.62,0,0,1-3.44.06,10.81,10.81,0,0,1-1.75-.34,7.6,7.6,0,0,1-1.68-.74A5.09,5.09,0,0,1,362.8,338a5,5,0,0,1-.2-1.7,5.9,5.9,0,0,1,.3-1.58,5.75,5.75,0,0,0,.46,3,4.5,4.5,0,0,0,.39.67,5.47,5.47,0,0,0,.5.58,4.74,4.74,0,0,0,1.27.86,7.57,7.57,0,0,0,3,.61,14.32,14.32,0,0,0,3.06-.31,26,26,0,0,0,5.82-2,39.42,39.42,0,0,0,5.37-3A47.36,47.36,0,0,0,392,327a34.71,34.71,0,0,0,3.64-5A17.64,17.64,0,0,0,397.91,316.3Z"/><path class="cls-2" d="M413.1,328l1-1,1-1.1c.67-.73,1.33-1.48,2-2.23s1.34-1.51,2-2.3c.32-.38.64-.78.95-1.18s.65-.79,1-1.2l.92-1.22c.31-.41.59-.83.9-1.24.61-.83,1.17-1.68,1.76-2.53.3-.42.57-.85.85-1.28l.86-1.29c.55-.87,1.09-1.76,1.65-2.63-.35,1-.72,1.94-1.1,2.91s-.8,1.93-1.24,2.87-.88,1.88-1.37,2.81-1,1.84-1.5,2.76c-.25.45-.53.9-.8,1.35s-.55.9-.84,1.33c-.57.89-1.15,1.77-1.78,2.61-.32.43-.64.85-1,1.26s-.68.81-1,1.2-.74.78-1.13,1.15c-.2.18-.39.37-.6.55s-.41.34-.68.54Z"/><path class="cls-2" d="M371.07,345.61l-32,15.94a.85.85,0,0,1-.22.08c-.27.06-.52-.27-.53-.29a.45.45,0,0,1,0-.59l18.39-32.09-11.88,26.67Z"/><path class="cls-2" d="M395.05,283.59c-4.12,3.24-10.68,8.38-13.17,10.28-3.73,2.84-19.37,25-19.61,25.32l13-22.62a20.92,20.92,0,0,1,10-8.84Z"/><polygon class="cls-2" points="416.28 272.26 399.75 284.54 413.52 269.23 416.28 272.26"/><path class="cls-2" d="M463.43,258c-4.15,6.39-9.07,13.93-14.09,21.57l7.2-16.94-28.88,8.08L462,256.24A1.18,1.18,0,0,1,463.43,258Z"/><path class="cls-1" d="M320.66,360.13c1.7-4.43,3.69-8.7,5.78-12.92s4.32-8.35,6.63-12.44,4.73-8.12,7.27-12.09,5.18-7.86,8.12-11.59c-1.7,4.43-3.69,8.7-5.78,12.92s-4.32,8.36-6.64,12.44-4.73,8.12-7.27,12.08S323.59,356.4,320.66,360.13Z"/><path class="cls-1" d="M322.73,361.45c1.7-4.43,3.69-8.7,5.78-12.92s4.32-8.35,6.63-12.44,4.73-8.12,7.27-12.08,5.18-7.87,8.12-11.6c-1.7,4.44-3.69,8.7-5.78,12.92s-4.32,8.36-6.64,12.44-4.73,8.12-7.27,12.08S325.66,357.72,322.73,361.45Z"/><path class="cls-1" d="M324.8,362.78c1.7-4.44,3.69-8.71,5.78-12.93s4.32-8.35,6.63-12.44,4.73-8.12,7.27-12.08,5.18-7.87,8.12-11.6c-1.7,4.44-3.69,8.71-5.78,12.92s-4.32,8.36-6.64,12.45-4.73,8.11-7.27,12.07S327.73,359,324.8,362.78Z"/><path class="cls-1" d="M375.48,276.77c6.18-3.18,12.47-6.1,18.79-9s12.68-5.58,19.08-8.24,12.84-5.22,19.31-7.69,13-4.85,19.61-7c-6.18,3.19-12.47,6.11-18.78,9s-12.69,5.59-19.09,8.24-12.84,5.22-19.31,7.69S382.1,274.64,375.48,276.77Z"/><path class="cls-1" d="M457.23,242.55a48,48,0,0,1,5.3-3.11c1.82-.92,3.66-1.78,5.54-2.57s3.77-1.51,5.7-2.16a48.4,48.4,0,0,1,5.93-1.62,47.33,47.33,0,0,1-5.3,3.11c-1.82.93-3.66,1.78-5.54,2.57s-3.77,1.51-5.7,2.15A47.64,47.64,0,0,1,457.23,242.55Z"/><path class="cls-1" d="M330.44,239.13l-39-50.7a.93.93,0,0,0-1.58.15L272.33,223.4l-.28-.23,16.18-39a2.27,2.27,0,0,1,1.68-1.42,2.37,2.37,0,0,1,2.49,1Z"/><path class="cls-1" d="M352.82,285.56,313,357.19c-.62.85-1.11,1.15-1.31,1.19a2.14,2.14,0,0,1-1.43-1.09l-35.8-59.24,21.17,29.6L288,310.56l14.3,21.69s9.24,14.13,14.45,9.73,8.88-12.63,8.88-12.63l1.25-10,5.06-1.91c24.93-40.89,19-38.77,17.5-43.25s-13.29-26.63-13.69-27.37l16.41,23.89A14.06,14.06,0,0,1,352.82,285.56Z"/><path class="cls-1" d="M270.36,291.23,263.6,280c-5.52-9.38-8.1-17.2-3.9-27.13l11.43-27.52-6.79,27.42A48.61,48.61,0,0,0,266.18,282,92.52,92.52,0,0,0,270.36,291.23Z"/><polygon class="cls-1" points="344.33 261.38 327.99 266.11 343.36 258.82 344.33 261.38"/><path class="cls-1" d="M296.43,237.87a5,5,0,0,1-4-.93c-3.07-2.11-5.56-7.29-6.5-13.52-1.37-9.14,1-16.78,5.46-17.76h0a5,5,0,0,1,4,.92c3.07,2.11,5.56,7.29,6.5,13.52h0c1.37,9.14-1,16.78-5.46,17.77ZM292,208.33h0c-2.54.56-4.54,6.72-3.34,14.68.93,6.17,3.35,10.31,5.34,11.68a2.4,2.4,0,0,0,1.86.51h0c2.54-.55,4.54-6.72,3.34-14.68h0c-.93-6.17-3.35-10.31-5.34-11.68A2.35,2.35,0,0,0,292,208.33Z"/><path class="cls-1" d="M299.77,205.9a15.78,15.78,0,0,1,1.85,1.72,24,24,0,0,1,1.58,2,20.41,20.41,0,0,1,1.33,2.2c.41.75.78,1.52,1.13,2.31a33.64,33.64,0,0,1,2.49,10,30.23,30.23,0,0,1,0,5.3,24.16,24.16,0,0,1-1,5.4c-.16.44-.29.9-.49,1.34l-.29.67c-.09.23-.22.45-.33.67a14.2,14.2,0,0,1-1.64,2.56,12.06,12.06,0,0,1-5.24,3.79,11.06,11.06,0,0,1-6.66.2,12.33,12.33,0,0,1-4.24-2.24,12.27,12.27,0,0,1-1.14-1,18.49,18.49,0,0,1-3.34-4.63,24.79,24.79,0,0,1-1.13-2.47c-.17-.42-.3-.85-.45-1.27s-.26-.85-.39-1.27-.23-.85-.34-1.28-.17-.86-.26-1.28c-.16-.86-.3-1.72-.39-2.58-.05-.43-.07-.86-.11-1.29s-.06-.86-.07-1.29c0-.86,0-1.72,0-2.57s.12-1.71.23-2.55.24-1.69.44-2.52.41-1.64.68-2.44a20.62,20.62,0,0,1,1-2.32,30.33,30.33,0,0,0-.81,9.73,36.33,36.33,0,0,0,.64,4.86,34.09,34.09,0,0,0,1.28,4.73,25.89,25.89,0,0,0,2,4.45,17.28,17.28,0,0,0,3,3.86c.31.27.61.55.94.79a10,10,0,0,0,1,.69,9.33,9.33,0,0,0,2.25,1,8.09,8.09,0,0,0,4.82-.17,9.11,9.11,0,0,0,3.94-2.83,14.13,14.13,0,0,0,2.33-4.28,22.84,22.84,0,0,0,1.1-4.76,32.11,32.11,0,0,0,.24-4.9,37.23,37.23,0,0,0-1.52-9.66A24,24,0,0,0,299.77,205.9Z"/><path class="cls-2" d="M296.06,217.54s-1.71-5.24-4.19-5.21a3,3,0,0,1,3.43-.15c.69.48,2.37,5.23,2.37,5.23Z"/><path class="cls-1" d="M311.4,270.2c1.23,8.16-.74,15.42-4.4,16.23s-7.62-5.16-8.85-13.32.74-15.42,4.4-16.22S310.17,262.05,311.4,270.2Z"/><path class="cls-2" d="M307.92,266.84c-1.15-4.81-5.2-10.85-8.24-5.6s.46-3.42.46-3.42l2.84-1.16,3.14,1.91,2.4,2.65,1.6,4.43,0,2.88Z"/><path class="cls-2" d="M298.26,266.69s2.45,10.28,5.24,14c-2.25-5.95-2.05-9.42-2.05-9.42s2.91,9,4.82,10.18l1.52-2.66a17.9,17.9,0,0,1-2.52-6.64c-.52-3.65.32-7.64,4-7.84s2.3,7,2.3,7l-.27,6.91-1.19,5.36-3.52,2.9s-2.52-.78-2.67-.9-3.82-4-4.43-7S298.26,266.69,298.26,266.69Z"/><path class="cls-1" d="M307.29,287.77a5.09,5.09,0,0,1-4-.93c-3.07-2.11-5.56-7.29-6.5-13.52-1.38-9.14,1-16.78,5.46-17.77h0a5.1,5.1,0,0,1,4,.93c3.07,2.11,5.56,7.29,6.5,13.52h0c1.37,9.14-1,16.78-5.46,17.76Zm-4.44-29.54h0c-2.55.55-4.54,6.72-3.34,14.68.93,6.17,3.35,10.31,5.34,11.68a2.35,2.35,0,0,0,1.86.5h0c2.54-.56,4.54-6.72,3.34-14.68h0c-.93-6.17-3.35-10.31-5.34-11.68A2.36,2.36,0,0,0,302.85,258.23Z"/><path class="cls-1" d="M310.63,255.8a15.69,15.69,0,0,1,1.85,1.71c.56.64,1.08,1.31,1.58,2a21.29,21.29,0,0,1,1.33,2.19c.41.76.78,1.53,1.13,2.32a33.64,33.64,0,0,1,2.49,10,30.23,30.23,0,0,1,0,5.3,24.08,24.08,0,0,1-1,5.39c-.16.45-.29.91-.49,1.35l-.29.67c-.1.22-.22.44-.33.66a14.47,14.47,0,0,1-1.64,2.57,12.06,12.06,0,0,1-5.24,3.79,11.06,11.06,0,0,1-6.66.2,12.24,12.24,0,0,1-3-1.34,11.33,11.33,0,0,1-1.28-.9,12.27,12.27,0,0,1-1.14-1,18.53,18.53,0,0,1-3.35-4.63c-.42-.81-.79-1.64-1.13-2.48-.16-.42-.3-.84-.45-1.26l-.39-1.27-.33-1.28c-.1-.43-.18-.86-.26-1.29-.16-.86-.3-1.71-.39-2.57-.05-.43-.08-.86-.11-1.29s-.06-.86-.07-1.29c0-.86,0-1.72,0-2.57s.12-1.71.23-2.56a24,24,0,0,1,.44-2.51c.2-.83.41-1.64.68-2.44a19.87,19.87,0,0,1,1-2.32,30.33,30.33,0,0,0-.81,9.73,36,36,0,0,0,.64,4.85,32.07,32.07,0,0,0,1.28,4.73,26.34,26.34,0,0,0,2,4.46,17.51,17.51,0,0,0,3,3.86,11.9,11.9,0,0,0,.94.79,9.57,9.57,0,0,0,3.26,1.66,8.09,8.09,0,0,0,4.82-.17,9.11,9.11,0,0,0,3.93-2.83,14,14,0,0,0,2.34-4.28,22.93,22.93,0,0,0,1.1-4.77,32,32,0,0,0,.24-4.89,37.16,37.16,0,0,0-1.52-9.66A23.88,23.88,0,0,0,310.63,255.8Z"/><path class="cls-2" d="M306.92,267.44s-1.71-5.24-4.19-5.22a3,3,0,0,1,3.43-.14c.69.48,2.36,5.23,2.36,5.23Z"/><path class="cls-1" d="M318.58,318.71c1.23,8.16-.74,15.42-4.4,16.22s-7.62-5.16-8.85-13.31.74-15.42,4.4-16.22S317.35,310.55,318.58,318.71Z"/><path class="cls-2" d="M315.1,315.35c-1.15-4.82-5.21-10.85-8.24-5.6s.45-3.42.45-3.42l2.85-1.17,3.14,1.92,2.4,2.65,1.6,4.42,0,2.88Z"/><path class="cls-2" d="M305.44,315.19s2.45,10.29,5.24,14c-2.25-5.94-2.05-9.41-2.05-9.41s2.91,9,4.82,10.18l1.52-2.66a18,18,0,0,1-2.52-6.64c-.52-3.65.32-7.65,4-7.85s2.3,7,2.3,7l-.28,6.91-1.18,5.36L313.75,335s-2.52-.78-2.67-.89-3.83-4-4.43-7.05S305.44,315.19,305.44,315.19Z"/><path class="cls-1" d="M314.47,336.27a5.07,5.07,0,0,1-4-.92c-3.06-2.11-5.55-7.29-6.49-13.53-1.38-9.14,1-16.78,5.46-17.76h0a5.06,5.06,0,0,1,4,.92c3.07,2.11,5.55,7.29,6.49,13.53h0c1.38,9.14-1,16.77-5.45,17.76ZM310,306.73h0c-2.54.56-4.53,6.73-3.33,14.68.93,6.17,3.35,10.32,5.33,11.68a2.43,2.43,0,0,0,1.87.51h0c2.54-.56,4.54-6.73,3.34-14.69h0c-.93-6.17-3.35-10.31-5.34-11.67A2.41,2.41,0,0,0,310,306.73Z"/><path class="cls-1" d="M317.81,304.3a16.61,16.61,0,0,1,1.85,1.72,22.09,22.09,0,0,1,1.57,2,19.41,19.41,0,0,1,1.34,2.19c.41.75.77,1.53,1.13,2.31a33.93,33.93,0,0,1,2.49,10,30.13,30.13,0,0,1,0,5.29,23,23,0,0,1-1,5.4c-.15.45-.28.9-.48,1.35l-.29.67c-.1.22-.22.44-.33.66a15.38,15.38,0,0,1-1.64,2.56,12,12,0,0,1-5.24,3.79,11.06,11.06,0,0,1-6.66.2,12.43,12.43,0,0,1-3-1.33,13.29,13.29,0,0,1-1.28-.9,13.91,13.91,0,0,1-1.14-1,18.9,18.9,0,0,1-3.35-4.63c-.42-.82-.8-1.65-1.13-2.48-.16-.42-.3-.85-.45-1.27s-.26-.84-.39-1.27-.22-.85-.33-1.28-.18-.85-.27-1.28c-.15-.86-.29-1.72-.38-2.58-.05-.43-.08-.86-.11-1.29s-.06-.86-.07-1.29c0-.86,0-1.71,0-2.57s.12-1.71.23-2.55a20.9,20.9,0,0,1,.44-2.51,25.34,25.34,0,0,1,.68-2.45,20.62,20.62,0,0,1,1-2.32,30.64,30.64,0,0,0-.82,9.73,38.06,38.06,0,0,0,.65,4.86,33.68,33.68,0,0,0,1.27,4.73,25.93,25.93,0,0,0,2,4.45,17,17,0,0,0,3,3.86,12.31,12.31,0,0,0,2,1.48,9.26,9.26,0,0,0,2.24,1,8,8,0,0,0,4.83-.17,9.09,9.09,0,0,0,3.93-2.82,14.06,14.06,0,0,0,2.34-4.28,23.08,23.08,0,0,0,1.1-4.77,32.05,32.05,0,0,0,.24-4.9,37.73,37.73,0,0,0-1.52-9.66A24,24,0,0,0,317.81,304.3Z"/><path class="cls-2" d="M314.1,315.94s-1.71-5.24-4.2-5.21a3,3,0,0,1,3.44-.15c.69.48,2.36,5.24,2.36,5.24Z"/><polygon class="cls-1" points="267.6 237.35 282.24 229.97 282.98 233.36 265.4 241.96 267.6 237.35"/><polygon class="cls-1" points="261.08 270.6 290.75 258.15 262.91 274.27 261.08 270.6"/><path class="cls-1" d="M260.94,267.56l40.23-17.5a2.71,2.71,0,0,0,.35-4.79L299,242.48s-6.6,2.71-9.56-.84-9.46,1.21-9,2.32c.82,2.06,7.88,2.94,7.88,2.94a20.36,20.36,0,0,1-6.68.36l-20,8.54Z"/><path class="cls-1" d="M307.78,230.43l9.09-3.25,5.15,7.09-23.8,9.4A35.78,35.78,0,0,0,307.78,230.43Z"/><path class="cls-1" d="M345.88,264l-27.73,8.49s1.66,7.72-1.63,13.64-4.3,4.41-4.3,4.41,1.9,4.32,9.26-9.05a27.74,27.74,0,0,1-1.68,7.4l33.64-10.25Z"/><polygon class="cls-1" points="351.53 283.99 323.42 293.12 335.9 298.07 347.47 293.94 351.53 283.99"/><polygon class="cls-1" points="301.53 292.58 278.68 298.78 274.73 292.76 296.15 287 301.53 292.58"/><path class="cls-1" d="M301.26,177.26c5.21,6.69,10.19,13.53,15.1,20.42s9.73,13.84,14.47,20.85,9.41,14.06,14,21.18,9.07,14.29,13.34,21.62c-5.21-6.69-10.2-13.53-15.11-20.42s-9.72-13.84-14.46-20.85-9.4-14.07-14-21.18S305.53,184.59,301.26,177.26Z"/><path class="cls-1" d="M485.73,201.86a132.38,132.38,0,0,1,10.52,11.36,27.28,27.28,0,0,1,4.53,6.76,24.06,24.06,0,0,1,1.33,16.4,24,24,0,0,1-3.54,7.49A133.72,133.72,0,0,1,488.93,256a130.79,130.79,0,0,1,6.65-14,24.72,24.72,0,0,0,2.81-13.58,22.76,22.76,0,0,0-1.53-6.79,25.71,25.71,0,0,0-1.48-3.2l-.93-1.52-1-1.62A133.51,133.51,0,0,1,485.73,201.86Z"/><path class="cls-1" d="M61.59,202.92a91.28,91.28,0,0,1-6.06,11.31l-.83,1.36L54,216.85a25.2,25.2,0,0,0-1.17,2.6,20.51,20.51,0,0,0-1.2,5.5,21,21,0,0,0,2.24,11,92.74,92.74,0,0,1,5.29,11.68,89.09,89.09,0,0,1-8.27-9.81,19.75,19.75,0,0,1-3.76-13.24,20.21,20.21,0,0,1,1.76-6.81,21.53,21.53,0,0,1,3.82-5.63A92.3,92.3,0,0,1,61.59,202.92Z"/><path class="cls-2" d="M267.86,179.23a28.31,28.31,0,0,1,2.47-12.79,31.74,31.74,0,0,1,19.28-17.34,28,28,0,0,1,13-1.1,45,45,0,0,0-12.15,3.3,38.71,38.71,0,0,0-18,16.19A45.12,45.12,0,0,0,267.86,179.23Z"/><path class="cls-2" d="M254.58,163a21.94,21.94,0,0,1,1.8-10.46,25.37,25.37,0,0,1,15.73-14.16,22,22,0,0,1,10.6-.68,39.79,39.79,0,0,0-9.77,2.88,32.42,32.42,0,0,0-14.47,13A38.91,38.91,0,0,0,254.58,163Z"/><path class="cls-2" d="M222.58,324.43c-.77,5.33-4.71,10.13-9.72,12.54s-11.21,2.55-15.87-.16a34.24,34.24,0,0,0,7.63-.33,26.23,26.23,0,0,0,6.93-2.22,25.8,25.8,0,0,0,6-4.06A33.1,33.1,0,0,0,222.58,324.43Z"/><path class="cls-2" d="M202.43,156.22c5-1.81,11.11-.59,15.57,2.67a30.94,30.94,0,0,1,5.93,5.37,17.21,17.21,0,0,1,3.58,7.17,46.51,46.51,0,0,0-5.27-5.54c-1.87-1.63-3.94-3-6-4.57a26,26,0,0,0-6.39-3.41A33.84,33.84,0,0,0,202.43,156.22Z"/><path class="cls-2" d="M238.18,135.55a56.33,56.33,0,0,1,10.86,4,82.07,82.07,0,0,1,10.08,5.71c1.61,1.06,3.16,2.22,4.72,3.36s3.05,2.39,4.44,3.74a56,56,0,0,1,7.8,8.56c-3.18-2.22-6.16-4.56-9.28-6.73s-6.17-4.37-9.34-6.43C251.18,143.54,244.72,139.64,238.18,135.55Z"/><path class="cls-2" d="M262,119.35a56.67,56.67,0,0,1,10.87,4A81.21,81.21,0,0,1,283,129.06c1.62,1.06,3.17,2.22,4.73,3.36s3,2.39,4.43,3.74a55,55,0,0,1,7.8,8.56c-3.18-2.22-6.16-4.56-9.27-6.73s-6.18-4.37-9.35-6.43C275,127.34,268.57,123.44,262,119.35Z"/><path class="cls-2" d="M244,121.43a48.53,48.53,0,0,1,9.83,3.5,70.69,70.69,0,0,1,9.1,5.12c1.45,1,2.85,2,4.25,3s2.74,2.15,4,3.39a46.78,46.78,0,0,1,6.95,7.79c-2.91-2-5.61-4-8.42-6s-5.57-3.9-8.42-5.75C255.58,128.76,249.8,125.22,244,121.43Z"/><path class="cls-1" d="M154.09,262.2l1.82,1.65a14.13,14.13,0,0,0,4.64,3.11l1.14.33.2,1.17a14,14,0,0,0,2.56,5l1.43,2-1.82-1.65a14.13,14.13,0,0,0-4.64-3.11l-1.14-.33-.2-1.17a14.15,14.15,0,0,0-2.56-5Z"/><path class="cls-1" d="M238.07,220.78l.68,2.36a14.14,14.14,0,0,0,2.33,5.08l.8.88-.44,1.1a14.17,14.17,0,0,0-.43,5.58l.18,2.45-.69-2.36a14.14,14.14,0,0,0-2.33-5.08l-.8-.88.45-1.1a14.21,14.21,0,0,0,.42-5.58Z"/><path class="cls-1" d="M289.51,218l.07,2.45a14.09,14.09,0,0,0,1,5.51l.55,1-.71,1a14.36,14.36,0,0,0-1.82,5.29l-.45,2.42-.06-2.46a14.25,14.25,0,0,0-1-5.51l-.55-1,.71-1a14.29,14.29,0,0,0,1.82-5.29Z"/><path class="cls-1" d="M333.2,226.76l-.64,2.37a14.19,14.19,0,0,0-.67,5.55l.22,1.16-.95.71a14.21,14.21,0,0,0-3.27,4.54l-1.13,2.18.65-2.37a14.14,14.14,0,0,0,.66-5.55l-.22-1.17.95-.71a14,14,0,0,0,3.27-4.53Z"/><path class="cls-1" d="M350.62,234.37l-.68,2.36a14.2,14.2,0,0,0-.76,5.54l.21,1.17-1,.69a14.14,14.14,0,0,0-3.34,4.49l-1.16,2.16.68-2.36a14,14,0,0,0,.75-5.54l-.2-1.17,1-.69a14.14,14.14,0,0,0,3.34-4.49Z"/><path class="cls-1" d="M382.05,253.78l-1.4,2a14.07,14.07,0,0,0-2.48,5L378,262l-1.13.34a14.21,14.21,0,0,0-4.6,3.18l-1.8,1.68,1.41-2a14.24,14.24,0,0,0,2.48-5l.18-1.17,1.14-.35a14,14,0,0,0,4.6-3.18Z"/><path class="cls-1" d="M395.91,266.79l-1.43,2a14.27,14.27,0,0,0-2.57,5l-.2,1.17-1.14.33a14.15,14.15,0,0,0-4.65,3.11L384.1,280l1.43-2a14.11,14.11,0,0,0,2.57-5l.2-1.17,1.14-.33a14.14,14.14,0,0,0,4.65-3.1Z"/><path class="cls-1" d="M181,224l-.07,2.45a14.15,14.15,0,0,0,.66,5.55l.49,1.09-.76.91a14,14,0,0,0-2.11,5.17l-.59,2.39.07-2.46a14,14,0,0,0-.66-5.55l-.49-1.08.76-.91a14.07,14.07,0,0,0,2.12-5.18Z"/><path class="cls-1" d="M268.18,256.26l.17,2.45a14,14,0,0,0,1.2,5.46l.6,1-.67,1a14.19,14.19,0,0,0-1.59,5.36l-.35,2.43-.17-2.45a14.24,14.24,0,0,0-1.21-5.46l-.59-1,.67-1a14.07,14.07,0,0,0,1.59-5.36Z"/><path class="cls-1" d="M315.31,254.41l.79,2.33a14.12,14.12,0,0,0,2.55,5l.83.84-.39,1.12a14.09,14.09,0,0,0-.19,5.59l.28,2.44-.79-2.33a14.14,14.14,0,0,0-2.54-5l-.84-.84.4-1.12a14.13,14.13,0,0,0,.18-5.59Z"/><path class="cls-1" d="M335,248.4l.86,2.31a14,14,0,0,0,2.7,4.89l.86.82-.36,1.13a14.08,14.08,0,0,0,0,5.59l.36,2.43-.86-2.3a14.14,14.14,0,0,0-2.7-4.9l-.86-.81.36-1.13a14,14,0,0,0,0-5.6Z"/><path class="cls-1" d="M363.83,235.78l1.42,2a14,14,0,0,0,3.87,4l1,.57-.06,1.19a14.35,14.35,0,0,0,1.43,5.4l1,2.26-1.42-2a14,14,0,0,0-3.87-4l-1-.57.06-1.19a14.12,14.12,0,0,0-1.43-5.4Z"/></svg>